# xmcd
#
# Track frame offsets:
#	150
#	20145
#	37222
#	54712
#	69585
#	84490
#	100660
#	123932
#	144132
#	161532
#
# Disc length: 2225 seconds
#
# Revision: 1
# Processed by: cddbd v1.4PL0 Copyright (c) Steve Scherf et al.
# Submitted via: CDmax 1.8
#
DISCID=8308af0a
DTITLE=Various Artist - New West Records Sampler 1999
DYEAR=1999
DGENRE=Country
TTITLE0=Shaver - Thunderbird
TTITLE1=Shaver - You Wouldn't Know Love (If You Fell in it)
TTITLE2=Jon Dee Graham - A Place in the Shade
TTITLE3=Jon Dee Graham - Big Sweet Life
TTITLE4=Bochepus King - What Am I Doing Here?
TTITLE5=Bochepus King - Blues for Buddy Bolden
TTITLE6=Stephen Bruton - Trip Stumble and Fall
TTITLE7=Stephen Bruton - Trip Around the Sun
TTITLE8=Shaver - Victory
TTITLE9=Shaver - Son of Calvary
EXTD=
EXTT0=
EXTT1=
EXTT2=
EXTT3=
EXTT4=
EXTT5=
EXTT6=
EXTT7=
EXTT8=
EXTT9=
PLAYORDER=
